<?xml version="1.0" standalone="no"?>
<!DOCTYPE svg PUBLIC "-//W3C//DTD SVG 20010904//EN"
 "http://www.w3.org/TR/2001/REC-SVG-20010904/DTD/svg10.dtd">
<svg version="1.0" xmlns="http://www.w3.org/2000/svg"
 viewBox="0 0 866.000000 288.000000"
 preserveAspectRatio="xMidYMid meet"><style>path, polygon, polyline, rect, circle, ellipse, text, tspan { fill: #FFFFFF; } [fill="none"] { fill: none !important; } line { stroke: #FFFFFF; }</style>

<g transform="translate(0.000000,288.000000) scale(0.100000,-0.100000)"
fill="#FFFFFF" stroke="none">
<path d="M722 2279 c-202 -36 -385 -175 -478 -364 -74 -151 -92 -292 -54 -440
33 -129 83 -219 175 -311 67 -69 95 -89 175 -127 123 -58 182 -72 310 -71 304
1 549 186 641 484 33 106 32 254 -3 362 -39 117 -92 204 -177 288 -123 122
-256 178 -436 185 -55 2 -124 0 -153 -6z m308 -45 c200 -59 355 -210 426 -413
96 -276 -37 -612 -295 -750 -111 -59 -184 -76 -316 -75 -136 0 -176 9 -295 66
-69 33 -100 55 -165 122 -126 129 -185 269 -185 439 0 300 228 574 523 627 72
13 241 4 307 -16z"/>
<path d="M827 2214 c-4 -4 -7 -20 -7 -36 0 -28 -13 -37 -25 -18 -3 6 -13 10
-21 10 -24 0 -16 -30 16 -57 21 -17 30 -34 30 -54 0 -34 -10 -37 -35 -9 -20
22 -55 27 -55 7 0 -7 20 -33 45 -57 25 -24 45 -50 45 -56 0 -27 -23 -25 -54 5
-18 17 -37 31 -43 31 -23 0 -25 -22 -3 -45 21 -23 21 -24 3 -34 -11 -5 -29 -7
-41 -4 -15 4 -22 1 -22 -9 0 -8 -8 -23 -19 -32 -18 -16 -19 -16 -29 13 -6 17
-18 31 -26 31 -19 0 -20 -12 -6 -60 5 -19 6 -38 2 -42 -18 -18 -40 6 -52 59
-13 53 -28 71 -49 59 -6 -4 -6 -17 1 -37 13 -38 5 -46 -26 -25 -15 9 -28 29
-32 50 -3 19 -12 37 -20 40 -17 7 -29 -17 -18 -35 5 -9 1 -10 -17 -5 -41 12
-53 11 -57 -5 -1 -9 8 -21 25 -28 l27 -13 -24 -18 c-36 -27 -17 -43 34 -29 29
8 46 8 65 -2 l26 -12 -37 -15 c-35 -14 -49 -34 -30 -45 4 -3 34 3 67 14 43 13
63 15 72 7 22 -18 15 -26 -34 -40 -60 -17 -66 -44 -10 -42 42 1 49 -16 20 -48
-15 -17 -15 -19 0 -36 30 -33 22 -52 -20 -49 -55 3 -50 -24 6 -40 57 -16 69
-28 43 -42 -15 -8 -33 -7 -69 4 -64 20 -85 19 -81 -2 2 -9 20 -21 42 -27 l40
-11 -27 -18 c-23 -15 -34 -16 -65 -7 -49 13 -52 13 -52 -6 0 -9 9 -18 21 -21
19 -5 18 -8 -13 -33 -28 -24 -30 -29 -16 -35 9 -4 25 -2 37 4 28 15 31 14 31
-14 0 -47 33 -24 44 31 5 20 16 35 33 43 l26 12 -7 -40 c-4 -26 -2 -42 5 -47
17 -10 37 22 45 73 6 39 25 63 49 63 4 0 3 -25 0 -55 -6 -47 -5 -55 9 -55 10
0 19 11 23 30 7 36 23 34 41 -3 10 -21 18 -26 35 -22 12 3 29 1 37 -4 12 -8
12 -12 -3 -29 -20 -22 -22 -52 -4 -52 7 0 26 14 42 30 16 17 35 30 42 30 26 0
12 -36 -27 -75 -22 -21 -40 -45 -40 -51 0 -25 19 -24 49 2 l31 26 0 -29 c0
-19 -10 -39 -30 -58 -23 -22 -27 -31 -18 -42 8 -10 14 -11 22 -3 17 17 24 12
28 -17 2 -17 10 -29 21 -31 13 -3 17 3 17 27 0 34 3 36 30 21 13 -7 21 -6 29
4 8 9 3 20 -19 41 -20 19 -30 39 -30 59 l0 29 23 -21 c26 -24 57 -29 57 -9 0
7 -20 33 -45 57 -49 48 -53 58 -29 67 9 3 28 -7 50 -28 26 -25 37 -30 46 -21
8 8 7 18 -7 38 -14 22 -15 28 -4 35 8 5 24 7 36 4 16 -4 25 1 35 21 16 32 31
33 38 2 3 -13 14 -24 24 -26 17 -4 18 1 12 52 -4 31 -3 56 1 56 22 0 42 -29
53 -78 13 -55 25 -71 42 -54 6 6 6 22 0 46 -8 26 -7 36 1 36 23 -1 47 -27 53
-58 8 -40 31 -61 40 -38 3 9 4 23 0 31 -7 19 -2 19 35 0 27 -14 30 -14 36 2 4
9 2 18 -4 20 -5 2 -19 10 -29 18 -18 14 -18 15 4 21 12 3 22 13 22 21 0 13 -9
14 -50 9 -37 -5 -56 -3 -72 8 -21 15 -21 16 -2 21 61 20 68 25 53 41 -13 12
-21 12 -62 -2 -52 -18 -100 -12 -91 10 3 8 26 19 50 25 35 9 44 16 42 29 -3
13 -12 16 -42 14 -21 -2 -36 1 -34 5 2 4 10 21 18 36 9 19 11 31 4 35 -6 4
-13 17 -17 30 -5 21 -2 22 31 20 53 -4 49 22 -8 43 -84 31 -48 61 41 35 67
-20 69 -20 69 4 0 11 -4 20 -9 20 -5 0 -22 5 -38 11 l-28 11 28 14 c21 12 36
13 64 5 38 -11 61 -2 49 18 -4 6 -14 11 -22 11 -22 0 -16 16 11 28 25 12 33
36 15 47 -5 3 -20 -1 -32 -9 -31 -22 -36 -20 -30 9 3 20 0 25 -16 25 -16 0
-22 -9 -27 -40 -5 -31 -14 -44 -36 -56 -29 -15 -30 -15 -23 11 11 44 9 60 -6
60 -9 0 -23 -22 -35 -58 -28 -83 -78 -106 -53 -25 6 20 8 43 5 52 -8 21 -35
10 -39 -17 -4 -30 -26 -32 -37 -3 -8 19 -17 25 -41 24 -44 -1 -55 13 -30 44
17 22 18 28 6 38 -12 9 -22 4 -54 -24 -45 -41 -52 -43 -52 -18 0 10 20 38 45
62 25 24 45 50 45 56 0 25 -26 21 -57 -9 l-33 -31 0 34 c0 25 9 43 32 67 23
24 29 36 21 44 -8 8 -17 8 -31 0 -19 -10 -21 -8 -24 21 -3 31 -17 45 -31 32z
m148 -347 c223 -113 215 -415 -14 -521 -68 -31 -178 -28 -247 7 -54 27 -112
85 -140 139 -27 51 -30 156 -8 219 25 70 93 140 164 168 75 29 175 25 245 -12z"/>
<path d="M760 1855 c-25 -8 -65 -31 -88 -51 -179 -153 -73 -443 162 -444 88 0
134 18 193 75 90 88 104 198 38 310 -28 49 -85 91 -151 111 -58 17 -95 17
-154 -1z m124 -84 c-7 -30 -16 -63 -20 -73 -5 -16 1 -18 45 -18 28 0 51 -2 51
-5 0 -3 -31 -51 -70 -107 -38 -56 -70 -105 -70 -110 0 -14 50 -9 87 8 98 47
131 201 52 246 -33 19 -38 48 -10 65 15 10 22 9 35 -6 20 -22 46 -105 46 -149
0 -80 -64 -163 -143 -187 -46 -13 -107 -11 -107 5 0 4 29 51 65 105 36 55 65
100 65 102 0 2 -20 3 -45 3 -28 0 -45 4 -45 12 0 13 72 170 76 166 1 -2 -4
-27 -12 -57z m-44 34 c0 -16 -42 -85 -51 -85 -6 0 -2 16 10 35 17 29 18 35 5
35 -23 0 -86 -35 -111 -62 -54 -57 -57 -161 -7 -191 20 -12 17 -35 -5 -47 -25
-13 -34 -13 -26 0 3 5 -2 34 -10 65 -30 100 16 199 110 241 30 13 85 19 85 9z
m4 -200 c-4 -8 -10 -15 -14 -15 -4 0 -15 -17 -23 -37 -9 -21 -23 -47 -31 -58
-16 -19 -16 -19 -7 5 5 14 16 39 25 55 16 29 15 30 -9 33 -14 2 -25 10 -25 18
0 10 13 14 45 14 35 0 43 -3 39 -15z m-107 -11 c-3 -3 -12 -4 -19 -1 -8 3 -5
6 6 6 11 1 17 -2 13 -5z"/>
<path d="M5763 2059 l-43 -30 0 -385 0 -384 55 0 55 0 2 283 3 282 145 -292
c80 -161 150 -293 157 -293 7 0 24 5 38 12 l25 11 0 394 c0 216 1 396 3 401 1
4 -22 8 -50 10 l-53 3 0 -282 c0 -156 -4 -279 -8 -273 -5 5 -69 136 -143 292
-73 155 -136 282 -139 282 -3 -1 -24 -14 -47 -31z"/>
<path d="M1905 2071 c-140 -36 -195 -151 -195 -407 0 -254 56 -378 186 -414
50 -14 144 -9 187 11 l27 12 0 194 0 193 -79 0 c-79 0 -79 0 -100 -34 -12 -18
-21 -36 -21 -40 0 -3 20 -6 45 -6 l45 0 0 -124 c0 -115 -2 -125 -20 -131 -26
-8 -93 11 -113 32 -39 45 -49 112 -45 319 4 240 14 274 85 306 52 23 108 18
147 -13 l25 -20 21 40 c11 22 20 42 20 45 0 2 -17 11 -38 19 -47 19 -138 28
-177 18z"/>
<path d="M4065 2051 c-38 -27 -41 -34 -68 -140 -16 -61 -62 -231 -102 -378
-41 -147 -72 -270 -69 -275 5 -7 104 -12 104 -5 0 1 34 130 74 287 71 276 74
284 84 245 6 -22 39 -152 73 -290 34 -137 63 -251 64 -253 2 -3 95 15 100 20
2 2 -20 98 -49 213 -30 116 -75 299 -102 408 -26 108 -53 197 -58 197 -6 -1
-29 -14 -51 -29z"/>
<path d="M7490 2064 c-119 -51 -156 -161 -148 -439 6 -196 20 -248 89 -316 36
-37 57 -49 99 -58 60 -13 128 -7 178 16 l32 15 -2 192 -3 191 -82 3 -82 3 -21
-41 -20 -40 45 0 45 0 0 -130 0 -130 -35 0 c-48 0 -91 24 -110 59 -26 51 -38
168 -33 331 6 179 23 236 77 264 46 25 114 21 148 -8 l29 -24 22 39 c13 22 20
44 17 49 -10 16 -106 40 -159 40 -28 -1 -67 -8 -86 -16z"/>
<path d="M2826 2056 c-48 -22 -94 -75 -118 -135 -20 -51 -22 -74 -23 -246 0
-210 9 -266 55 -339 35 -55 88 -84 167 -92 146 -15 239 58 272 214 14 66 14
321 1 393 -16 82 -54 152 -102 185 -37 26 -50 29 -132 31 -59 2 -101 -2 -120
-11z m160 -76 c77 -38 98 -119 92 -358 -3 -155 -5 -171 -29 -217 -60 -119
-195 -107 -238 21 -17 52 -26 312 -13 396 15 96 37 137 86 159 51 23 51 23
102 -1z"/>
<path d="M3302 1663 l3 -408 130 0 c156 1 213 15 265 64 86 82 76 256 -18 299
-20 9 -39 17 -41 19 -2 1 8 16 22 33 33 38 41 80 35 179 -10 169 -81 221 -304
221 l-94 0 2 -407z m237 305 c32 -20 44 -52 49 -128 7 -127 -35 -185 -131
-178 l-42 3 -3 150 c-1 82 0 156 3 163 4 11 17 13 56 8 28 -4 59 -12 68 -18z
m83 -427 c27 -31 30 -39 26 -87 -3 -38 -11 -61 -28 -79 -26 -28 -105 -49 -165
-43 l-40 3 -3 124 -3 123 92 -3 c89 -4 91 -5 121 -38z"/>
<path d="M5250 1870 l0 -200 -22 0 c-16 0 -30 -12 -46 -40 l-23 -40 46 0 45 0
0 -165 0 -165 120 -1 c66 -1 139 -2 163 -3 60 -3 67 2 67 40 l0 34 -120 0
-120 0 0 130 0 130 114 0 c112 0 114 0 120 24 13 52 3 56 -120 56 l-114 0 0
160 0 160 125 0 125 0 -20 40 -20 40 -160 0 -160 0 0 -200z"/>
<path d="M6380 1870 c0 -194 -1 -200 -20 -200 -18 0 -60 -51 -60 -72 0 -5 18
-8 40 -8 l40 0 0 -165 0 -165 175 0 175 0 0 35 c0 34 -1 35 -37 36 -21 0 -74
1 -118 2 l-80 2 -3 128 -3 127 121 0 120 0 0 40 0 40 -120 0 -120 0 0 160 0
160 125 0 c69 0 125 2 125 5 0 2 -8 20 -17 40 l-17 35 -163 0 -163 0 0 -200z"/>
<path d="M6850 1665 l0 -405 55 0 55 0 0 365 0 365 40 0 c93 0 130 -47 130
-165 0 -113 -28 -155 -104 -155 -19 0 -37 -4 -40 -9 -8 -12 175 -411 188 -411
6 0 28 5 48 10 l37 11 -24 52 c-12 29 -46 101 -74 161 -28 60 -50 109 -49 110
100 40 132 95 131 230 0 194 -61 246 -285 246 l-108 0 0 -405z"/>
<path d="M7900 1665 l0 -405 55 0 55 0 0 405 0 405 -55 0 -55 0 0 -405z"/>
<path d="M8210 1870 l0 -200 -23 0 c-17 0 -30 -11 -46 -40 l-22 -40 45 0 46 0
0 -165 0 -165 175 0 175 0 0 35 0 35 -62 2 c-35 1 -88 2 -118 2 l-55 1 -3 128
-3 127 116 0 115 0 0 40 0 40 -115 0 -115 0 0 160 0 160 125 0 125 0 -20 40
-20 40 -160 0 -160 0 0 -200z"/>
<path d="M2270 1655 l0 -405 165 0 c109 0 165 4 165 10 0 6 -7 24 -15 40 l-16
30 -94 0 -95 0 -1 348 c-1 191 -1 355 0 365 2 14 -6 17 -53 17 l-56 0 0 -405z"/>
<path d="M4442 1658 l3 -403 168 -3 c118 -2 167 1 167 9 0 6 -8 24 -17 40 -17
28 -19 28 -112 31 l-96 3 -3 363 -2 362 -55 0 -55 0 2 -402z"/>
<path d="M4025 1320 l49 -49 45 41 c25 23 50 45 56 50 5 4 -38 8 -95 8 l-104
0 49 -50z"/>
<path d="M7167 1113 c-14 -3 -17 -11 -13 -26 75 -288 112 -409 129 -419 11 -5
23 -6 27 -1 5 4 35 106 68 226 54 198 57 217 41 219 -11 0 -24 1 -31 2 -8 1
-28 -62 -54 -168 -26 -107 -44 -162 -48 -150 -4 10 -20 79 -37 153 -42 191
-35 176 -82 164z"/>
<path d="M7795 1104 c-19 -14 -20 -26 -18 -212 1 -108 2 -203 2 -209 1 -8 14
-13 31 -13 l30 0 1 153 1 152 76 -158 c64 -133 79 -157 97 -155 19 3 20 10 23
226 l2 222 -30 0 -29 0 -3 -152 -3 -153 -70 154 c-39 85 -75 156 -80 157 -6 2
-19 -3 -30 -12z"/>
<path d="M8433 1096 c-92 -43 -94 -74 -11 -214 53 -89 60 -107 52 -130 -7 -20
-21 -31 -57 -42 -47 -15 -61 -35 -31 -47 23 -9 89 14 124 43 48 41 42 78 -30
194 -33 53 -60 104 -60 113 0 22 46 55 87 63 24 5 33 11 29 21 -3 8 -6 17 -6
19 0 12 -51 1 -97 -20z"/>
<path d="M6900 1000 c0 -87 -3 -110 -14 -110 -8 0 -17 -7 -20 -16 -9 -23 -8
-24 14 -24 19 0 20 -7 20 -90 l0 -90 100 0 c93 0 100 1 100 20 0 18 -7 20 -65
20 l-65 0 0 70 0 70 65 0 c58 0 65 2 65 20 0 18 -7 20 -65 20 l-65 0 0 90 0
90 65 0 c63 0 65 1 55 20 -9 18 -21 20 -100 20 l-90 0 0 -110z"/>
<path d="M7510 1000 c0 -90 -3 -110 -15 -110 -8 0 -19 -9 -25 -20 -9 -18 -8
-20 15 -20 25 0 25 0 25 -90 l0 -90 95 0 c88 0 95 1 95 20 0 18 -7 20 -65 20
l-65 0 0 70 0 70 65 0 c58 0 65 2 65 20 0 18 -7 20 -65 20 l-65 0 0 90 0 90
70 0 c68 0 70 1 60 20 -9 18 -21 20 -100 20 l-90 0 0 -110z"/>
<path d="M8120 1090 c-10 -18 -8 -20 25 -20 l35 0 0 -200 0 -200 25 0 25 0 1
183 c2 227 -1 211 29 216 24 3 39 16 40 34 0 4 -38 7 -85 7 -74 0 -86 -2 -95
-20z"/>
</g>
</svg>
